<?xml version="1.0" encoding="UTF-8" standalone="no"?>
<!DOCTYPE svg PUBLIC "-//W3C//DTD SVG 1.1//EN"
 "http://www.w3.org/Graphics/SVG/1.1/DTD/svg11.dtd">
<!-- Generated by graphviz version 2.48.0 (20210717.1556)
 -->
<!-- Title: uxflow Pages: 1 -->
<svg width="439pt" height="469pt"
 viewBox="14.40 14.40 424.40 454.40" xmlns="http://www.w3.org/2000/svg" xmlns:xlink="http://www.w3.org/1999/xlink">
<g id="graph0" class="graph" transform="scale(1 1) rotate(0) translate(18.4 450.4)">
<title>uxflow</title>
<polygon fill="white" stroke="transparent" points="-4,4 -4,-436 406,-436 406,4 -4,4"/>
<!-- page1 -->
<g id="node1" class="node">
<title>page1</title>
<polygon fill="none" stroke="black" stroke-width="0.5" points="281,-432 142,-432 142,-396 281,-396 281,-432"/>
<text text-anchor="middle" x="211.5" y="-410.3" font-family="Helvetica,sans-Serif" font-size="14.00">Take me to the start</text>
</g>
<!-- page2 -->
<g id="node2" class="node">
<title>page2</title>
<polygon fill="none" stroke="black" stroke-width="0.5" points="297.5,-360 125.5,-360 125.5,-216 297.5,-216 297.5,-360"/>
<text text-anchor="start" x="164.5" y="-291.8" font-family="Helvetica,sans-Serif" font-size="14.00">Do you want a </text>
<text text-anchor="start" x="133.5" y="-276.8" font-family="Helvetica,sans-Serif" font-size="14.00"> compliment or an insult?</text>
</g>
<!-- page1&#45;&gt;page2 -->
<g id="edge1" class="edge">
<title>page1&#45;&gt;page2</title>
<path fill="none" stroke="black" d="M211.5,-395.76C211.5,-388.6 211.5,-379.73 211.5,-370.19"/>
<polygon fill="black" stroke="black" points="215,-370.05 211.5,-360.05 208,-370.05 215,-370.05"/>
</g>
<!-- page3 -->
<g id="node3" class="node">
<title>page3</title>
<polygon fill="none" stroke="black" stroke-width="0.5" points="213,-180 0,-180 0,-144 213,-144 213,-180"/>
<text text-anchor="middle" x="106.5" y="-158.3" font-family="Helvetica,sans-Serif" font-size="14.00">Choose Your Compliment Level</text>
</g>
<!-- page2&#45;&gt;page3 -->
<g id="edge2" class="edge">
<title>page2&#45;&gt;page3</title>
<path fill="none" stroke="black" d="M151.33,-215.95C142.81,-205.88 134.56,-196.14 127.52,-187.82"/>
<polygon fill="black" stroke="black" points="130.04,-185.38 120.9,-180.01 124.69,-189.9 130.04,-185.38"/>
</g>
<!-- page4 -->
<g id="node4" class="node">
<title>page4</title>
<polygon fill="none" stroke="black" stroke-width="0.5" points="402,-180 231,-180 231,-144 402,-144 402,-180"/>
<text text-anchor="middle" x="316.5" y="-158.3" font-family="Helvetica,sans-Serif" font-size="14.00">Choose Your Insult Level</text>
</g>
<!-- page2&#45;&gt;page4 -->
<g id="edge5" class="edge">
<title>page2&#45;&gt;page4</title>
<path fill="none" stroke="black" d="M271.67,-215.95C280.19,-205.88 288.44,-196.14 295.48,-187.82"/>
<polygon fill="black" stroke="black" points="298.31,-189.9 302.1,-180.01 292.96,-185.38 298.31,-189.9"/>
</g>
<!-- page6 -->
<g id="node6" class="node">
<title>page6</title>
<polygon fill="none" stroke="black" stroke-width="0.5" points="178,-108 35,-108 35,-72 178,-72 178,-108"/>
<text text-anchor="middle" x="106.5" y="-86.3" font-family="Helvetica,sans-Serif" font-size="14.00">Choose Compliment</text>
</g>
<!-- page3&#45;&gt;page6 -->
<g id="edge3" class="edge">
<title>page3&#45;&gt;page6</title>
<path fill="none" stroke="black" d="M106.5,-143.7C106.5,-135.98 106.5,-126.71 106.5,-118.11"/>
<polygon fill="black" stroke="black" points="110,-118.1 106.5,-108.1 103,-118.1 110,-118.1"/>
</g>
<!-- page5 -->
<g id="node5" class="node">
<title>page5</title>
<polygon fill="none" stroke="black" stroke-width="0.5" points="367.5,-108 265.5,-108 265.5,-72 367.5,-72 367.5,-108"/>
<text text-anchor="middle" x="316.5" y="-86.3" font-family="Helvetica,sans-Serif" font-size="14.00">Choose Insult</text>
</g>
<!-- page4&#45;&gt;page5 -->
<g id="edge6" class="edge">
<title>page4&#45;&gt;page5</title>
<path fill="none" stroke="black" d="M316.5,-143.7C316.5,-135.98 316.5,-126.71 316.5,-118.11"/>
<polygon fill="black" stroke="black" points="320,-118.1 316.5,-108.1 313,-118.1 320,-118.1"/>
</g>
<!-- page8 -->
<g id="node8" class="node">
<title>page8</title>
<polygon fill="none" stroke="black" stroke-width="0.5" points="352,-36 281,-36 281,0 352,0 352,-36"/>
<text text-anchor="middle" x="316.5" y="-14.3" font-family="Helvetica,sans-Serif" font-size="14.00">An Insult</text>
</g>
<!-- page5&#45;&gt;page8 -->
<g id="edge7" class="edge">
<title>page5&#45;&gt;page8</title>
<path fill="none" stroke="black" d="M316.5,-71.7C316.5,-63.98 316.5,-54.71 316.5,-46.11"/>
<polygon fill="black" stroke="black" points="320,-46.1 316.5,-36.1 313,-46.1 320,-46.1"/>
</g>
<!-- page7 -->
<g id="node7" class="node">
<title>page7</title>
<polygon fill="none" stroke="black" stroke-width="0.5" points="158.5,-36 54.5,-36 54.5,0 158.5,0 158.5,-36"/>
<text text-anchor="middle" x="106.5" y="-14.3" font-family="Helvetica,sans-Serif" font-size="14.00">A Compliment</text>
</g>
<!-- page6&#45;&gt;page7 -->
<g id="edge4" class="edge">
<title>page6&#45;&gt;page7</title>
<path fill="none" stroke="black" d="M106.5,-71.7C106.5,-63.98 106.5,-54.71 106.5,-46.11"/>
<polygon fill="black" stroke="black" points="110,-46.1 106.5,-36.1 103,-46.1 110,-46.1"/>
</g>
</g>
</svg>
